<?xml version="1.0" encoding="iso-8859-1"?>
<!-- Generator: Adobe Illustrator 16.0.0, SVG Export Plug-In . SVG Version: 6.00 Build 0)  -->
<!DOCTYPE svg PUBLIC "-//W3C//DTD SVG 1.1//EN" "http://www.w3.org/Graphics/SVG/1.1/DTD/svg11.dtd">
<svg version="1.1" id="&#x56FE;&#x5C42;_1" xmlns="http://www.w3.org/2000/svg" xmlns:xlink="http://www.w3.org/1999/xlink" x="0px"
	 y="0px" width="720px" height="720px" viewBox="0 0 720 720" style="enable-background:new 0 0 720 720;" xml:space="preserve">
<rect style="fill:#E8F1F2;" width="720" height="720"/>
<path style="display:none;opacity:0.5;fill:#8BB5D5;" d="M332.244,558.925c-97.993,0-177.434-79.452-177.434-177.468
	c0-98.012,79.441-177.467,177.434-177.467c42.195,0,82.051,15.907,112.506,40.51l0.5,273.75
	C414.682,543.224,374.792,558.925,332.244,558.925z"/>
<path style="display:none;fill:#E8F1F2;" d="M577.888,380.487c0,118.804-96.142,215.108-214.734,215.108
	c-118.597,0-214.736-96.305-214.736-215.108c0-118.798,96.14-215.105,214.736-215.105
	C481.746,165.382,577.888,261.689,577.888,380.487z"/>
<path style="display:none;fill:#8BB5D5;" d="M519.654,380.489c0,86.452-70.07,156.53-156.502,156.53
	c-86.433,0-156.502-70.078-156.502-156.53c0-86.45,70.069-156.531,156.502-156.531C449.584,223.958,519.654,294.039,519.654,380.489
	z"/>
<g style="display:none;">
	<g style="display:inline;">
		
			<rect x="209.311" y="350.867" transform="matrix(-0.7071 -0.7071 0.7071 -0.7071 350.8936 906.3224)" style="fill:#459FE3;" width="307.683" height="59.244"/>
		<polygon style="fill:#459FE3;" points="492.881,468.325 534.771,510.217 450.988,510.217 		"/>
		<polygon style="fill:#459FE3;" points="233.424,292.652 191.533,250.761 275.316,250.761 		"/>
	</g>
	<g style="display:inline;">
		
			<rect x="209.311" y="350.867" transform="matrix(-0.7071 0.7071 -0.7071 -0.7071 888.9865 392.7467)" style="fill:#459FE3;" width="307.682" height="59.244"/>
		<polygon style="fill:#459FE3;" points="492.881,292.652 534.771,250.761 450.988,250.761 		"/>
		<polygon style="fill:#459FE3;" points="233.425,468.325 191.533,510.217 275.317,510.217 		"/>
	</g>
</g>
<g style="display:none;">
	
		<rect x="209.311" y="350.866" transform="matrix(-0.7071 -0.7071 0.7071 -0.7071 350.8948 906.3225)" style="display:inline;fill:#459FE3;" width="307.682" height="59.245"/>
	<polygon style="display:inline;fill:#459FE3;" points="492.881,468.324 534.771,510.217 450.988,510.217 	"/>
	<polygon style="display:inline;fill:#459FE3;" points="233.424,292.652 191.533,250.761 275.316,250.761 	"/>
</g>
<g>
	<g>
		<g>
			<linearGradient id="SVGID_1_" gradientUnits="userSpaceOnUse" x1="397.0361" y1="159.5" x2="431.2358" y2="550.4043">
				<stop  offset="0" style="stop-color:#48D4D1"/>
				<stop  offset="1" style="stop-color:#459FE3"/>
			</linearGradient>
			<path style="fill:url(#SVGID_1_);" d="M278.842,172.095c6.099-4.699,15.138-3.717,20.086,2.183l294.849,351.568
				c4.947,5.899,2.696,10.719-5.004,10.708l-72.669-0.094c-7.7-0.011-18.045-4.849-22.989-10.752L238.063,221.173
				c-4.944-5.903-3.999-14.578,2.101-19.277L278.842,172.095z"/>
		</g>
		<g>
			<linearGradient id="SVGID_2_" gradientUnits="userSpaceOnUse" x1="397.0576" y1="558.4854" x2="431.3484" y2="166.5396">
				<stop  offset="0" style="stop-color:#026FB2;stop-opacity:0.9"/>
				<stop  offset="1" style="stop-color:#459FE3"/>
			</linearGradient>
			<path style="fill:url(#SVGID_2_);" d="M277.681,545.671c6.017,4.806,14.991,3.913,19.943-1.983l296.145-352.606
				c4.952-5.896,2.704-10.712-4.996-10.703l-72.669,0.093c-7.7,0.01-18.039,4.853-22.977,10.762l-254.86,305.042
				c-4.937,5.909-4.054,14.676,1.963,19.481L277.681,545.671z"/>
		</g>
	</g>
	<path style="fill:#459FE3;" d="M593.646,190.56c2.804-2.548,9.747-10.234,1.529-18.855
		c-52.488-55.037-121.233-86.886-203.242-86.886c-151.719,0-274.705,123.206-274.705,275.18
		c0,151.984,122.986,275.184,274.705,275.184c84.698,0,156.867-38.219,204.832-92.109c4.676-5.252,2.167-11.719-1.146-15.287
		c-9.641-10.379-100.898-0.955-100.133,0.572c2.632,5.266,5.531,8.969,0,12.805c-180.075,124.85-370.601-13.32-370.601-182.674
		c0-174.876,196.895-304.246,368.499-184.427c8.908,6.221,3.075,12.55,1.718,14.523c-2.103,3.058,24.261,11.403,50.386,11.403
		C572.624,199.987,589.112,194.68,593.646,190.56z"/>
	<path style="display:none;opacity:0.2;fill:#026FB2;" d="M602.609,180.524c-50.392-60.021-126.266-95.707-210.677-95.707
		c-151.719,0-274.705,123.206-274.705,275.18c0,151.984,122.986,275.184,274.705,275.184c84.698,0,160.449-38.402,210.84-98.777
		l-100.551-0.082c-179.808,133.637-377.336-8.48-377.336-177.834c0-174.876,200.861-309.706,377.415-177.693l93.893-0.253
		L602.609,180.524z"/>
</g>
<polygon style="display:none;fill:#459FE3;" points="492.881,292.652 534.771,250.761 450.988,250.761 "/>
<polygon style="display:none;fill:#459FE3;" points="233.425,468.324 191.533,510.217 275.317,510.217 "/>
<path style="fill:#E8F1F2;" d="M444.848,244.599"/>
<path style="fill:#E8F1F2;" d="M522.25,518.379"/>
<path style="display:none;fill:#E8F1F2;" d="M444.848,518.279"/>
<g style="display:none;">
	<linearGradient id="SVGID_3_" gradientUnits="userSpaceOnUse" x1="662.209" y1="481.25" x2="662.209" y2="238.751">
		<stop  offset="0" style="stop-color:#026FB2;stop-opacity:0.9"/>
		<stop  offset="0.5" style="stop-color:#459FE3"/>
		<stop  offset="1" style="stop-color:#48D4D1"/>
	</linearGradient>
	<path style="display:inline;fill:url(#SVGID_3_);" d="M700.453,308.158c-5.289-4.909-10.389-8.639-15.298-11.19
		c-4.913-2.549-10.766-3.824-17.563-3.824c-7.747,0-13.788,1.94-18.132,5.807c-4.346,3.875-6.516,9.491-6.516,16.856
		c0,5.667,1.886,10.341,5.666,14.023c3.776,3.683,8.543,7.083,14.307,10.198c5.759,3.117,11.943,6.232,18.556,9.349
		c6.608,3.116,12.792,6.848,18.556,11.189c5.759,4.348,10.525,9.682,14.307,16.006c3.774,6.33,5.665,14.213,5.665,23.654
		c0,13.6-3.779,24.98-11.332,34.137c-7.556,9.164-18.413,15.064-32.578,17.707v29.18h-22.663v-28.33
		c-8.688-0.947-17.423-3.258-26.204-6.941c-8.782-3.682-16.388-8.543-22.806-14.59l14.732-22.096
		c6.607,5.289,13.313,9.539,20.112,12.748c6.8,3.213,14.068,4.816,21.813,4.816c9.252,0,16.147-2.125,20.681-6.375
		c4.532-4.25,6.799-10.242,6.799-17.988c0-6.232-1.891-11.424-5.665-15.58c-3.781-4.152-8.548-7.934-14.307-11.332
		c-5.764-3.4-11.947-6.658-18.556-9.774c-6.612-3.116-12.797-6.798-18.556-11.048c-5.764-4.25-10.531-9.35-14.307-15.298
		c-3.78-5.95-5.666-13.359-5.666-22.239c0-13.218,3.776-24.222,11.333-33.004c7.551-8.782,17.75-14.305,30.595-16.572V238.75h22.663
		v28.33c9.065,1.134,16.856,3.732,23.372,7.791c6.515,4.064,12.415,8.831,17.706,14.307L700.453,308.158z"/>
</g>
<g style="display:none;">
	<linearGradient id="SVGID_4_" gradientUnits="userSpaceOnUse" x1="123.6079" y1="446.6201" x2="123.6079" y2="273.3804">
		<stop  offset="0" style="stop-color:#026FB2;stop-opacity:0.9"/>
		<stop  offset="0.5" style="stop-color:#459FE3"/>
		<stop  offset="1" style="stop-color:#48D4D1"/>
	</linearGradient>
	<path style="display:inline;fill:url(#SVGID_4_);" d="M187.062,273.38l-46.443,79.01h36.595v17.459h-42.638v24.061h42.638v17.682
		h-42.638v35.029h-21.935v-35.029H68.436v-17.682h44.205v-24.061H68.436V352.39h37.714l-45.995-79.01h24.732
		c21.486,39.244,34.541,64.126,39.168,74.646h0.448c1.567-4.326,5.856-13.056,12.87-26.187l26.299-48.459H187.062z"/>
</g>
</svg>
